<?xml version="1.0" encoding="UTF-8" standalone="no"?>
<!-- Created with Inkscape (http://www.inkscape.org/) -->

<svg
   width="64"
   height="64"
   viewBox="0 0 64 64"
   version="1.1"
   id="svg1"
   xml:space="preserve"
   sodipodi:docname="lymora-logo-glow.svg"
   inkscape:version="1.4 (86a8ad7, 2024-10-11)"
   inkscape:export-filename="lymora-logo-glow.png"
   inkscape:export-xdpi="96"
   inkscape:export-ydpi="96"
   xmlns:inkscape="http://www.inkscape.org/namespaces/inkscape"
   xmlns:sodipodi="http://sodipodi.sourceforge.net/DTD/sodipodi-0.dtd"
   xmlns="http://www.w3.org/2000/svg"
   xmlns:svg="http://www.w3.org/2000/svg"><sodipodi:namedview
     id="namedview1"
     pagecolor="#ffffff"
     bordercolor="#000000"
     borderopacity="0.25"
     inkscape:showpageshadow="2"
     inkscape:pageopacity="0.0"
     inkscape:pagecheckerboard="0"
     inkscape:deskcolor="#d1d1d1"
     inkscape:document-units="px"
     inkscape:lockguides="true"
     inkscape:zoom="7.9726563"
     inkscape:cx="9.5952964"
     inkscape:cy="58.763351"
     inkscape:window-width="2560"
     inkscape:window-height="1369"
     inkscape:window-x="-8"
     inkscape:window-y="-8"
     inkscape:window-maximized="1"
     inkscape:current-layer="layer1" /><defs
     id="defs1"><filter
       inkscape:collect="always"
       style="color-interpolation-filters:sRGB"
       id="filter15"
       x="-0.068805245"
       y="-0.068907632"
       width="1.1376105"
       height="1.1378153"><feGaussianBlur
         inkscape:collect="always"
         stdDeviation="1.1304191"
         id="feGaussianBlur15" /></filter></defs><g
     inkscape:label="Layer 1"
     inkscape:groupmode="layer"
     id="layer1"><ellipse
       style="fill:#000b49;fill-opacity:0.82960892;stroke:#e6dec1;stroke-width:0.988;stroke-dasharray:none;stroke-opacity:1"
       id="path2"
       cx="32.195011"
       cy="31.973284"
       rx="29.845152"
       ry="29.800806" /><ellipse
       style="fill:none;fill-opacity:1;stroke:#e649f7;stroke-width:2.788;stroke-dasharray:none;stroke-opacity:1;filter:url(#filter15);stroke-dashoffset:0;paint-order:normal"
       id="ellipse15"
       cx="31.928936"
       cy="32.150665"
       rx="29.845152"
       ry="29.800806" /><path
       d="m 35.093768,12.677283 -0.07209,0.06466 h -0.504644 l -0.07209,0.06466 h -0.36046 l -0.07209,0.06466 h -0.288372 l -0.07209,0.06466 h -0.288369 l -0.07209,0.06466 h -0.216276 l -0.07209,0.06466 h -0.144184 l -0.07209,0.06466 h -0.216278 l -0.07209,0.06466 h -0.07209 l -0.07209,0.06466 H 32.2101 l -0.07209,0.06466 h -0.144184 l -0.07209,0.06466 h -0.144184 l -0.07209,0.06466 h -0.07209 l -0.07209,0.06466 h -0.07209 l -0.07209,0.06466 h -0.144184 l -0.07209,0.06466 h -0.07209 l -0.07209,0.06466 h -0.07209 l -0.07209,0.06466 h -0.07209 l -0.07209,0.06466 h -0.07209 l -0.07209,0.06466 h -0.07209 l -0.07209,0.06466 h -0.07209 l -0.144183,0.129315 h -0.07209 l -0.07209,0.06466 h -0.07209 l -0.144231,0.129301 h -0.07209 l -0.07209,0.06466 h -0.07209 L 29.5427,14.487735 h -0.07209 l -0.216276,0.193972 h -0.07209 l -0.216275,0.193974 h -0.07209 l -0.216282,0.193973 h -0.07209 l -0.576735,0.51726 h -0.07209 l -0.504643,0.452603 v 0.06466 l -0.504645,0.452604 v 0.06466 l -0.216276,0.193972 v 0.06466 l -0.216276,0.193973 v 0.06466 l -0.144183,0.129315 v 0.06466 l -0.144185,0.129316 v 0.06466 l -0.144184,0.129315 v 0.06466 l -0.07209,0.06466 v 0.06466 l -0.144185,0.129315 v 0.06466 l -0.07209,0.06466 v 0.06466 l -0.07209,0.06466 v 0.06466 l -0.144183,0.129315 v 0.06466 l -0.07209,0.06466 v 0.06466 l -0.07209,0.06466 v 0.06466 l -0.07209,0.06466 v 0.06466 l -0.07209,0.06466 v 0.06466 l -0.07209,0.06466 v 0.06466 l -0.07209,0.06466 v 0.06466 l -0.07209,0.06466 v 0.129315 l -0.07209,0.06466 v 0.06466 l -0.07209,0.06466 v 0.06466 l -0.07209,0.06466 v 0.129316 l -0.07209,0.06466 v 0.06466 l -0.07209,0.06466 v 0.06466 l -0.07209,0.06466 v 0.129314 l -0.07209,0.06466 v 0.129315 l -0.07209,0.06466 v 0.06466 l -0.07209,0.06466 v 0.129315 l -0.07209,0.06466 v 0.129315 l -0.07209,0.06466 v 0.06466 l -0.07209,0.06466 v 0.129316 l -0.07209,0.06466 v 0.129314 l -0.07209,0.06466 v 0.129316 l -0.07209,0.06466 v 0.129317 l -0.07209,0.06466 v 0.129315 l -0.07209,0.06466 v 0.193972 l -0.07209,0.06466 v 0.129316 l -0.07209,0.06466 v 0.129314 l -0.07209,0.06466 v 0.193972 l -0.07209,0.06466 v 0.129314 l -0.07209,0.06466 v 0.129316 l -0.07209,0.06466 v 0.193973 l -0.07209,0.06466 v 0.129315 l -0.07209,0.06466 v 0.193974 l -0.07209,0.06466 v 0.193973 l -0.07209,0.06466 v 0.129315 l -0.07209,0.06466 v 0.193973 l -0.07209,0.06466 v 0.193972 l -0.07209,0.06466 v 0.193972 l -0.07209,0.06466 v 0.193972 l -0.07209,0.06466 v 0.193974 l -0.07209,0.06466 v 0.193973 l -0.07209,0.06466 v 0.193973 l -0.07209,0.06466 v 0.193972 l -0.07209,0.06466 v 0.193972 l -0.07209,0.06466 v 0.193973 l -0.07209,0.06466 v 0.193973 l -0.07209,0.06466 v 0.193974 l -0.07209,0.06466 v 0.258631 l -0.07209,0.06466 v 0.193973 l -0.07209,0.06466 v 0.193974 l -0.07209,0.06466 v 0.193972 l -0.07209,0.06466 v 0.193972 l -0.07209,0.06466 v 0.193972 l -0.07209,0.06466 v 0.193972 l -0.07209,0.06466 v 0.25863 l -0.07209,0.06466 v 0.193972 l -0.07209,0.06466 v 0.193973 l -0.07209,0.06466 v 0.193972 l -0.07209,0.06466 v 0.193973 l -0.07209,0.06466 v 0.193974 l -0.07209,0.06466 v 0.193973 l -0.07209,0.06466 v 0.193973 l -0.07209,0.06466 v 0.193973 l -0.07209,0.06466 v 0.193973 l -0.07209,0.06466 v 0.193972 l -0.07209,0.06466 v 0.193972 l -0.07209,0.06466 v 0.129315 l -0.07209,0.06466 v 0.193972 l -0.07209,0.06466 v 0.193974 l -0.07209,0.06466 v 0.129316 l -0.07209,0.06466 v 0.193973 l -0.07209,0.06466 v 0.129315 l -0.07209,0.06466 v 0.193974 l -0.07209,0.06466 v 0.129315 l -0.07209,0.06466 v 0.129316 l -0.07209,0.06466 v 0.129316 l -0.07209,0.06466 v 0.129314 l -0.07209,0.06466 v 0.129316 l -0.07209,0.06466 v 0.06466 l -0.07209,0.06466 v 0.129314 l -0.07209,0.06466 v 0.129315 l -0.07209,0.06466 v 0.06466 l -0.07209,0.06466 v 0.129315 l -0.07209,0.06466 v 0.06466 l -0.07209,0.06466 v 0.06466 l -0.07209,0.06466 v 0.06466 l -0.07209,0.06466 v 0.129316 l -0.07209,0.06466 v 0.06466 l -0.144182,0.129316 v 0.06466 l -0.07209,0.06466 v 0.06466 l -0.07209,0.06466 v 0.06466 l -0.144184,0.129316 v 0.06466 l -0.07209,0.06466 v 0.06466 l -0.144185,0.129316 v 0.06466 l -0.216275,0.193973 v 0.06466 l -0.504645,0.452604 v 0.06466 l -0.432552,0.387944 h -0.07209 l -0.432552,0.387946 h -0.07209 l -0.216276,0.193973 h -0.07209 l -0.07209,0.06466 h -0.07209 l -0.144184,0.129314 h -0.07209 l -0.144184,0.129316 h -0.07227 l -0.07209,0.06466 h -0.07209 l -0.07209,0.06466 h -0.07209 l -0.07209,0.06466 h -0.07209 l -0.07209,0.06466 h -0.07209 l -0.07209,0.06466 h -0.07209 l -0.07209,0.06466 h -0.07209 l -0.07209,0.06466 h -0.07209 l -0.07209,0.06466 h -0.07209 l -0.07209,0.06466 H 14.69181 l -0.07209,0.06466 h -0.07209 l -0.07209,0.06466 h -0.144184 l -0.07209,0.06466 h -0.07209 l -0.07209,0.06466 h -0.07209 l -0.07209,0.06466 h -0.144184 l -0.07209,0.06466 h -0.07209 l -0.07209,0.06466 h -0.07209 l -0.07209,0.06466 h -0.07209 l -0.07209,0.06466 h -0.07209 l -0.07209,0.06466 h -0.07209 l -0.07209,0.06466 h -0.07209 l -0.07209,0.06466 h -0.07209 l -0.288432,0.258377 h -0.07209 v 0.06466 l -0.216275,0.193972 v 0.06466 l -0.07209,0.06466 v 0.06466 l -0.07209,0.06466 v 0.06466 l -0.07209,0.06466 v 0.129316 l -0.07209,0.06466 v 0.646575 l 0.07209,0.06466 v 0.06466 l 0.07209,0.06466 v 0.06466 l 0.216277,0.193972 h 0.07209 l 0.07209,0.06466 h 0.07209 l 0.07209,0.06466 h 0.07209 l 0.07209,0.06466 h 0.288368 l 0.07209,0.06466 h 1.009288 l 0.07209,-0.06466 h 0.432552 l 0.07209,-0.06466 h 0.648828 l 0.07209,-0.06466 h 2.090666 l 0.07209,0.06466 h 0.865104 l 0.07209,0.06466 H 18.9452 l 0.07209,0.06466 h 0.432552 l 0.07209,0.06466 h 0.288369 l 0.07209,0.06466 h 0.288368 l 0.07209,0.06466 h 0.216275 l 0.07209,0.06466 h 0.216276 l 0.07209,0.06466 h 0.216276 l 0.07209,0.06466 h 0.216276 l 0.07209,0.06466 h 0.216275 l 0.07209,0.06466 h 0.144183 l 0.07209,0.06466 h 0.144185 l 0.07209,0.06466 h 0.216276 l 0.07209,0.06466 h 0.144184 l 0.07209,0.06466 h 0.07209 l 0.07209,0.06466 h 0.216275 l 0.07209,0.06466 h 0.144185 l 0.07209,0.06466 h 0.07209 l 0.07209,0.06466 h 0.144185 l 0.07209,0.06466 h 0.144184 l 0.07209,0.06466 h 0.144185 l 0.07209,0.06466 h 0.144185 l 0.07209,0.06466 h 0.07209 l 0.07209,0.06466 h 0.144185 l 0.07209,0.06466 h 0.07209 l 0.07209,0.06466 h 0.144184 l 0.07209,0.06466 h 0.07209 l 0.07209,0.06466 h 0.144161 l 0.07209,0.06466 h 0.07209 l 0.07209,0.06466 h 0.144185 l 0.07209,0.06466 h 0.07209 l 0.07209,0.06466 h 0.144185 l 0.07209,0.06466 h 0.07209 l 0.07209,0.06466 h 0.144185 l 0.07209,0.06466 h 0.07209 l 0.07209,0.06466 h 0.07209 l 0.07209,0.06466 H 26.8752 l 0.07209,0.06466 h 0.07209 l 0.07209,0.06466 h 0.144182 l 0.07209,0.06466 h 0.07209 l 0.07209,0.06466 h 0.07209 l 0.07209,0.06466 h 0.144183 l 0.07209,0.06466 h 0.07209 l 0.07209,0.06466 h 0.144184 l 0.07209,0.06466 h 0.07209 l 0.07209,0.06466 h 0.07209 l 0.07209,0.06466 h 0.144184 l 0.07209,0.06466 h 0.07209 l 0.07209,0.06466 h 0.144183 l 0.07209,0.06466 h 0.07209 l 0.07209,0.06466 h 0.144183 l 0.07209,0.06466 h 0.07209 l 0.07209,0.06466 h 0.144184 l 0.07209,0.06466 h 0.07209 l 0.07209,0.06466 h 0.144316 l 0.07209,0.06466 h 0.07209 l 0.07209,0.06466 h 0.144184 l 0.07209,0.06466 h 0.144182 l 0.07209,0.06466 h 0.07209 l 0.07209,0.06466 h 0.144184 l 0.07209,0.06466 h 0.144182 l 0.07209,0.06466 h 0.144184 l 0.07209,0.06466 h 0.144185 l 0.07209,0.06466 h 0.14419 l 0.07209,0.06466 h 0.144184 l 0.07209,0.06466 h 0.144185 l 0.07209,0.06466 h 0.216277 l 0.07209,0.06466 h 0.144185 l 0.07209,0.06466 h 0.216276 l 0.07209,0.06466 h 0.216277 l 0.07209,0.06466 h 0.216276 l 0.07209,0.06466 h 0.288369 l 0.07209,0.06466 h 0.288369 l 0.07209,0.06466 h 0.36046 l 0.07209,0.06466 h 0.648828 l 0.07209,0.06466 h 1.874392 l 0.07209,-0.06466 h 0.648827 l 0.07209,-0.06466 h 0.36046 l 0.07209,-0.06466 h 0.288367 l 0.07209,-0.06466 h 0.216275 l 0.07209,-0.06466 h 0.216278 l 0.07209,-0.06466 h 0.216276 l 0.07209,-0.06466 h 0.07209 l 0.07209,-0.06466 h 0.144183 l 0.07209,-0.06466 h 0.144184 l 0.07209,-0.06466 h 0.144185 l 0.07209,-0.06466 h 0.07209 l 0.07209,-0.06466 h 0.144184 l 0.07209,-0.06466 h 0.07209 l 0.07209,-0.06466 h 0.07209 l 0.07209,-0.06466 h 0.07209 l 0.07209,-0.06466 h 0.07209 l 0.07209,-0.06466 h 0.07209 l 0.07209,-0.06466 h 0.07209 l 0.07209,-0.06466 h 0.07209 l 0.144184,-0.129316 h 0.07209 l 0.07209,-0.06466 h 0.07209 l 0.144184,-0.129315 h 0.07209 l 0.144185,-0.129315 h 0.07209 l 0.144184,-0.129315 h 0.07209 l 0.216275,-0.193973 h 0.07209 l 0.288368,-0.258631 h 0.07209 l 1.658115,-1.487059 v -0.06466 l 0.288369,-0.25863 v -0.06466 l 0.216275,-0.193972 v -0.06466 l 0.216276,-0.193973 v -0.06466 l 0.144184,-0.129316 v -0.06466 l 0.216276,-0.193972 v -0.06466 l 0.144183,-0.129315 v -0.06466 l 0.07209,-0.06466 v -0.06466 l 0.144184,-0.129315 v -0.06466 l 0.07209,-0.06466 v -0.06466 l 0.144185,-0.129315 v -0.06479 l 0.07209,-0.06466 v -0.06466 l 0.144184,-0.129316 v -0.06466 l 0.07209,-0.06466 v -0.06466 l 0.07209,-0.06466 v -0.06466 l 0.144184,-0.129315 v -0.06466 l 0.07209,-0.06466 v -0.06466 l 0.07209,-0.06466 v -0.06466 l 0.07209,-0.06466 v -0.06466 l 0.07209,-0.06466 v -0.06466 l 0.07209,-0.06466 v -0.06466 l 0.07209,-0.06466 v -0.06466 l 0.07209,-0.06466 v -0.06466 l 0.07209,-0.06466 v -0.06466 l 0.07209,-0.06466 v -0.129315 l 0.07209,-0.06466 v -0.06466 l 0.07209,-0.06466 v -0.06466 l 0.07209,-0.06466 v -0.129316 l 0.07209,-0.06466 v -0.06466 l 0.07209,-0.06466 v -0.129317 l 0.07209,-0.06466 v -0.06466 l 0.07209,-0.06466 V 39.44522 l 0.07209,-0.06466 v -0.129314 l 0.07209,-0.06466 v -0.193972 l 0.07209,-0.06466 v -0.129316 l 0.07209,-0.06466 v -0.193973 l 0.07209,-0.06466 v -0.258631 l 0.07209,-0.06466 v -0.452375 l 0.07209,-0.06466 V 37.18243 l -0.07209,-0.06466 v -0.258632 l -0.07209,-0.06466 v -0.06466 l -0.07209,-0.06466 h -0.07209 l -0.07209,-0.06466 h -0.36046 l -0.07209,0.06466 h -0.07209 l -0.07209,0.06466 h -0.07209 l -0.360464,0.323288 v 0.06466 l -0.216277,0.193973 v 0.06466 l -0.144183,0.129315 v 0.06466 l -0.216277,0.193973 v 0.06466 l -0.144184,0.129316 v 0.06466 l -0.288368,0.258631 v 0.06466 l -0.36046,0.323287 v 0.06466 l -1.153471,1.034522 h -0.07209 l -0.360432,0.323285 h -0.07209 L 44.537691,40.286 h -0.07209 l -0.144182,0.129315 h -0.07209 l -0.144184,0.129315 h -0.07209 l -0.07209,0.06466 h -0.07209 l -0.144184,0.129315 h -0.07209 l -0.07209,0.06466 h -0.07209 l -0.07209,0.06466 h -0.07209 l -0.07209,0.06466 h -0.07209 l -0.07209,0.06466 h -0.07209 l -0.07209,0.06466 h -0.144184 l -0.07209,0.06466 h -0.07209 l -0.07209,0.06466 h -0.07209 l -0.07209,0.06466 h -0.144184 l -0.07209,0.06466 h -0.144185 l -0.07209,0.06466 h -0.216192 l -0.07209,0.06466 H 41.58205 l -0.07209,0.06466 h -0.216275 l -0.07209,0.06466 h -0.288367 l -0.07209,0.06466 h -0.504643 l -0.07209,0.06466 h -1.513931 l -0.07209,-0.06466 h -0.576743 l -0.07209,-0.06466 H 37.617 l -0.07209,-0.06466 h -0.36046 l -0.07209,-0.06466 h -0.288369 l -0.07209,-0.06466 h -0.216294 l -0.07209,-0.06466 h -0.216275 l -0.07209,-0.06466 h -0.216276 l -0.07209,-0.06466 H 35.67051 l -0.07209,-0.06466 h -0.216277 l -0.07209,-0.06466 h -0.216276 l -0.07209,-0.06466 h -0.144184 l -0.07209,-0.06466 h -0.216276 l -0.07209,-0.06466 h -0.144185 l -0.07209,-0.06466 h -0.216276 l -0.07209,-0.06466 H 33.86822 l -0.07209,-0.06466 h -0.144184 l -0.07209,-0.06466 h -0.216275 l -0.07209,-0.06466 h -0.144184 l -0.07209,-0.06466 h -0.144185 l -0.07209,-0.06466 h -0.144184 l -0.07209,-0.06466 h -0.144185 l -0.07209,-0.06466 h -0.144185 l -0.07209,-0.06466 h -0.216275 l -0.07209,-0.06466 h -0.144185 l -0.07209,-0.06466 h -0.144184 l -0.07209,-0.06466 h -0.144183 l -0.07209,-0.06466 h -0.144184 l -0.07209,-0.06466 h -0.216276 l -0.07209,-0.06466 h -0.07209 l -0.07209,-0.06466 h -0.216276 l -0.07209,-0.06466 H 30.19156 l -0.07209,-0.06466 h -0.144183 l -0.07209,-0.06466 h -0.144184 l -0.07209,-0.06466 H 29.54274 l -0.07209,-0.06466 h -0.144185 l -0.07209,-0.06466 h -0.216276 l -0.07209,-0.06466 h -0.144184 l -0.07209,-0.06466 h -0.14424 l -0.07209,-0.06466 h -0.144184 l -0.07209,-0.06466 H 28.17294 l -0.07209,-0.06466 h -0.216276 l -0.07209,-0.06466 h -0.144185 l -0.07209,-0.06466 h -0.144184 l -0.07209,-0.06466 h -0.216277 l -0.07209,-0.06466 h -0.144185 l -0.07209,-0.06466 h -0.216275 l -0.07209,-0.06466 h -0.144184 l -0.07209,-0.06466 h -0.216276 l -0.07209,-0.06466 h -0.216277 l -0.07209,-0.06466 h -0.288373 l -0.07209,-0.06466 h -0.216275 l -0.07209,-0.06466 v -0.06466 l 0.144185,-0.129315 v -0.06466 l 0.144183,-0.129316 v -0.06466 l 0.144184,-0.129316 v -0.06466 l 0.144184,-0.129314 v -0.06466 l 0.07209,-0.06466 v -0.06466 l 0.144184,-0.129314 v -0.06466 l 0.07209,-0.06466 v -0.06466 l 0.07209,-0.06466 v -0.06466 l 0.144184,-0.129315 v -0.06466 l 0.07209,-0.06466 V 36.6005 l 0.07209,-0.06466 v -0.06449 l 0.07209,-0.06466 v -0.06466 l 0.07209,-0.06466 v -0.06466 l 0.07209,-0.06466 v -0.06466 l 0.07209,-0.06466 v -0.06466 l 0.07209,-0.06466 v -0.06466 l 0.07209,-0.06466 v -0.06466 l 0.07209,-0.06466 v -0.06466 l 0.07209,-0.06466 v -0.06466 l 0.07209,-0.06466 v -0.06466 l 0.07209,-0.06466 v -0.129315 l 0.07209,-0.06466 v -0.06466 l 0.07209,-0.06466 v -0.06466 l 0.07209,-0.06466 V 34.66088 l 0.07209,-0.06466 v -0.06466 l 0.07209,-0.06466 v -0.06466 l 0.07209,-0.06466 v -0.129316 l 0.07209,-0.06466 v -0.06466 l 0.07209,-0.06466 v -0.129316 l 0.07209,-0.06466 v -0.06466 l 0.07209,-0.06466 v -0.129316 l 0.07209,-0.06466 v -0.129314 l 0.07209,-0.06466 v -0.06466 l 0.07209,-0.06466 v -0.12932 l 0.07209,-0.06466 v -0.129315 l 0.07209,-0.06466 v -0.129314 l 0.07209,-0.06466 v -0.06466 l 0.07209,-0.06466 v -0.129314 l 0.07209,-0.06466 v -0.129314 l 0.07209,-0.06466 V 31.94521 l 0.07209,-0.06466 v -0.129315 l 0.07209,-0.06466 V 31.55737 l 0.07209,-0.06466 v -0.129314 l 0.07209,-0.06466 v -0.129314 l 0.07209,-0.06466 v -0.129316 l 0.07209,-0.06466 v -0.193973 l 0.07209,-0.06466 v -0.129314 l 0.07209,-0.06466 v -0.193972 l 0.07209,-0.06466 v -0.129316 l 0.07209,-0.06466 v -0.129314 l 0.07209,-0.06466 v -0.193972 l 0.07209,-0.06466 V 29.42367 l 0.07209,-0.06466 v -0.194016 l 0.07209,-0.06466 v -0.193977 l 0.07209,-0.06466 v -0.129316 l 0.07209,-0.06466 v -0.193972 l 0.07209,-0.06466 v -0.193972 l 0.07209,-0.06466 v -0.193973 l 0.07209,-0.06466 V 27.67784 l 0.07209,-0.06466 v -0.193972 l 0.07209,-0.06466 v -0.193973 l 0.07209,-0.06466 v -0.193973 l 0.07209,-0.06466 V 26.64332 l 0.07209,-0.06466 v -0.19397 l 0.07209,-0.06466 v -0.19397 l 0.07209,-0.06466 v -0.25863 l 0.07209,-0.06466 v -0.193973 l 0.07209,-0.06466 v -0.193972 l 0.07209,-0.06466 v -0.193972 l 0.07209,-0.06466 V 24.76825 l 0.07209,-0.06466 v -0.193997 l 0.07209,-0.06466 v -0.193977 l 0.07209,-0.06466 V 23.99233 l 0.07209,-0.06466 V 23.7337 l 0.07209,-0.06466 v -0.193974 l 0.07209,-0.06466 v -0.193973 l 0.07209,-0.06466 v -0.193922 l 0.07209,-0.06466 v -0.129315 l 0.07209,-0.06466 v -0.193974 l 0.07209,-0.06466 v -0.193996 l 0.07209,-0.06466 V 21.98798 l 0.07209,-0.06466 v -0.129314 l 0.07209,-0.06466 v -0.193972 l 0.07209,-0.06466 V 21.3414 l 0.07209,-0.06466 v -0.129316 l 0.07209,-0.06466 v -0.193996 l 0.07209,-0.06466 v -0.129316 l 0.07209,-0.06466 V 20.50083 l 0.07209,-0.06466 v -0.129315 l 0.07209,-0.06466 v -0.129316 l 0.07209,-0.06466 V 19.91891 l 0.07209,-0.06466 v -0.06466 l 0.07209,-0.06466 v -0.129316 l 0.07209,-0.06466 v -0.06466 l 0.07209,-0.06466 v -0.129315 l 0.07209,-0.06466 v -0.06466 l 0.07209,-0.06466 v -0.06466 l 0.07209,-0.06466 v -0.129315 l 0.144203,-0.129316 v -0.06466 l 0.07209,-0.06466 v -0.06466 l 0.07209,-0.06466 v -0.06466 l 0.07209,-0.06466 v -0.06466 l 0.07209,-0.06466 v -0.06466 l 0.144185,-0.129316 v -0.06466 l 0.144184,-0.129314 v -0.06466 l 0.144184,-0.129314 v -0.06466 l 0.36046,-0.323288 v -0.06466 l 0.432551,-0.387945 h 0.07209 L 34.661063,16.492 h 0.07209 l 0.144185,-0.129315 h 0.07209 l 0.07209,-0.06466 h 0.07209 l 0.07209,-0.06466 h 0.07209 l 0.07209,-0.06466 h 0.07209 l 0.07209,-0.06466 h 0.144185 l 0.07209,-0.06466 h 0.216277 l 0.07209,-0.06466 h 1.009287 l 0.07209,0.06466 h 0.144184 l 0.07209,0.06466 h 0.144185 l 0.07209,0.06466 h 0.07209 l 0.144185,0.129316 h 0.07209 l 0.432552,0.387946 v 0.06466 l 0.07209,0.06466 v 0.06466 l 0.07209,0.06466 v 0.06466 l 0.07209,0.06466 v 0.06466 l 0.07209,0.06466 v 0.193974 l 0.07209,0.06466 v 0.25863 l 0.07209,0.06466 v 0.711233 l -0.07209,0.06466 v 0.387946 l -0.07209,0.06466 v 0.193972 l -0.07209,0.06466 v 0.25863 l -0.07209,0.06466 v 0.193973 l -0.07209,0.06466 v 0.129316 l -0.07209,0.06466 v 0.129316 l -0.07209,0.06466 v 0.129314 l -0.07209,0.06466 v 0.06466 l -0.07209,0.06466 v 0.129314 l -0.07209,0.06466 v 0.06466 l -0.07209,0.06466 v 0.06466 l -0.07209,0.06466 v 0.06466 l -0.07209,0.06466 v 0.06466 l -0.07209,0.06466 v 0.06466 l -0.144184,0.129316 v 0.06466 l -0.07209,0.06466 v 0.06466 l -0.144185,0.129316 v 0.06466 l -0.144182,0.129317 v 0.06466 l -0.144185,0.129316 v 0.06466 l -0.144184,0.129316 v 0.06466 l -0.216276,0.193973 v 0.06466 l -0.216275,0.193972 v 0.06466 l -0.288369,0.258631 v 0.06466 l -0.288368,0.25863 v 0.06466 l -0.432552,0.387946 v 0.06466 L 33.43549,25.802792 H 33.3634 l -0.432553,0.387946 h -0.07209 l -0.36046,0.323288 h -0.07209 l -0.288369,0.258631 h -0.07209 l -0.216276,0.193972 h -0.07209 l -0.144184,0.129316 h -0.07209 l -0.144184,0.129314 h -0.07209 l -0.216276,0.193973 v 0.06466 l -0.07209,0.06466 v 0.51726 l 0.07209,0.06466 v 0.129314 l 0.216276,0.193974 h 0.216275 l 0.07209,0.06466 h 0.937195 l 0.07209,-0.06466 h 0.432553 l 0.07209,-0.06466 h 0.288368 l 0.07209,-0.06466 h 0.216275 l 0.07209,-0.06466 h 0.216275 l 0.07209,-0.06466 H 34.2285 l 0.07209,-0.06466 h 0.144184 l 0.07209,-0.06466 h 0.07209 l 0.07209,-0.06466 h 0.144185 l 0.07209,-0.06466 h 0.144184 l 0.07209,-0.06466 h 0.07209 l 0.07209,-0.06466 h 0.07209 l 0.07209,-0.06466 h 0.144185 l 0.07209,-0.06466 h 0.07209 l 0.07209,-0.06466 h 0.07209 l 0.07209,-0.06466 h 0.07209 l 0.07209,-0.06466 h 0.07209 l 0.07209,-0.06466 h 0.07209 l 0.07209,-0.06466 h 0.07209 l 0.07209,-0.06466 h 0.07209 l 0.07209,-0.06466 h 0.07209 l 0.144183,-0.129316 h 0.07209 l 0.07209,-0.06466 h 0.07209 l 0.07209,-0.06466 h 0.07209 l 0.144184,-0.129314 h 0.07209 l 0.07209,-0.06466 h 0.07209 l 0.144185,-0.129315 h 0.07209 l 0.144184,-0.129316 h 0.07209 l 0.216277,-0.193972 h 0.07209 l 0.216276,-0.193974 h 0.07209 l 0.216276,-0.193972 h 0.07209 l 0.216277,-0.193972 h 0.07209 l 0.504643,-0.452604 h 0.07209 l 1.08138,-0.969863 v -0.06466 l 0.432551,-0.387945 v -0.06466 l 0.288381,-0.258583 v -0.06466 l 0.144185,-0.129316 v -0.06466 L 41.8702,23.08718 v -0.06466 l 0.144185,-0.129315 v -0.06466 l 0.144182,-0.129315 v -0.06466 l 0.07209,-0.06466 v -0.06466 l 0.144184,-0.129315 v -0.06466 l 0.07209,-0.06466 v -0.06466 l 0.07209,-0.06466 v -0.06466 l 0.07209,-0.06466 v -0.06466 l 0.07209,-0.06466 v -0.06466 l 0.07209,-0.06466 v -0.06466 l 0.07209,-0.06466 v -0.06466 l 0.07209,-0.06466 v -0.06466 l 0.07209,-0.06466 v -0.129316 l 0.07209,-0.06466 v -0.06466 l 0.07209,-0.06466 V 20.88882 l 0.07209,-0.06466 v -0.129317 l 0.07209,-0.06466 v -0.129315 l 0.07209,-0.06466 v -0.193973 l 0.07209,-0.06466 v -0.193973 l 0.07209,-0.06466 v -0.25863 l 0.07209,-0.06466 v -0.323288 l 0.07209,-0.06466 v -1.681098 l -0.07209,-0.06466 v -0.323289 l -0.07209,-0.06466 v -0.193972 l -0.07209,-0.06466 v -0.129314 l -0.07209,-0.06466 V 16.4921 l -0.07209,-0.06466 v -0.129281 l -0.07209,-0.06466 v -0.06466 l -0.07209,-0.06466 v -0.129316 l -0.07209,-0.06466 v -0.06466 l -0.07209,-0.06466 v -0.06466 l -0.07209,-0.06466 v -0.06466 l -0.144183,-0.129316 v -0.06466 l -0.07209,-0.06466 v -0.06466 l -0.144185,-0.129316 v -0.06466 L 42.230646,14.811 v -0.06466 l -0.72092,-0.646577 h -0.07209 L 41.149494,13.84112 h -0.07209 L 40.93322,13.711805 H 40.86113 L 40.716946,13.58249 h -0.07209 l -0.07209,-0.06466 h -0.07209 l -0.07209,-0.06466 h -0.07209 l -0.144187,-0.12931 h -0.07209 l -0.07209,-0.06466 h -0.144184 l -0.07209,-0.06466 h -0.07209 l -0.07209,-0.06466 h -0.144183 l -0.07209,-0.06466 h -0.144185 l -0.07209,-0.06466 h -0.144205 l -0.07209,-0.06466 h -0.144184 l -0.07209,-0.06466 H 38.55419 L 38.4821,12.80658 h -0.288371 l -0.07209,-0.06466 h -0.432553 l -0.07209,-0.06466 z"
       id="path1"
       style="fill:#6d8dff;fill-opacity:1;stroke:none;stroke-width:0.068;stroke-dasharray:none" /></g></svg>
